PathFileType	4	(X/Y/Z)	/Users/niels/Desktop/University/Third Semester/Perception and Action/Exam/Gymnastics Motion Tracking/Code for Gym Tracking/Analyzed Data/Webcam_Backflip/id5_3_baseline_Sports2D/id5_3_baseline_Sports2D_px_person00.trc
DataRate	CameraRate	NumFrames	NumMarkers	Units	OrigDataRate	OrigDataStartFrame	OrigNumFrames
29.8125	29.8125	6	22	m	29.8125	0	160
Frame#	Time	Hip			RHip			RKnee			RAnkle			RBigToe			RSmallToe			RHeel			LHip			LKnee			LAnkle			LBigToe			LSmallToe			LHeel			Neck			Head			Nose			RShoulder			RElbow			RWrist			LShoulder			LElbow			LWrist		
		X1	Y1	Z1	X2	Y2	Z2	X3	Y3	Z3	X4	Y4	Z4	X5	Y5	Z5	X6	Y6	Z6	X7	Y7	Z7	X8	Y8	Z8	X9	Y9	Z9	X10	Y10	Z10	X11	Y11	Z11	X12	Y12	Z12	X13	Y13	Z13	X14	Y14	Z14	X15	Y15	Z15	X16	Y16	Z16	X17	Y17	Z17	X18	Y18	Z18	X19	Y19	Z19	X20	Y20	Z20	X21	Y21	Z21	X22	Y22	Z22
0	0.0	0.9737319162477919	-0.5698043791190854	0.0	0.9737147863464476	-0.568222582472902	0.0	0.9848085364106625	-0.6776308283897386	0.0	0.9594403526167181	-0.7822881577521548	0.0	0.9911558095530149	-0.8044826539264177	0.0	0.984804795857079	-0.8076562353562624	0.0	0.9483441080261497	-0.7997360223309021	0.0	0.9737275849902148	-0.5666348392629322	0.0	0.9832215997075268	-0.6776316312149187	0.0	0.9610310208525396	-0.777531209102279	0.0	0.9927337385214225	-0.7997377718001955	0.0	0.9895660361361274	-0.7965645117447393	0.0	0.9499338790887716	-0.7918108153869854	0.0	0.9879883095001828	-0.42709149690823556	0.0	0.9975156158219791	-0.3589085714352186	0.0	1.0149533804642148	-0.39378686979128624	0.0	0.991150192949422	-0.43343324369284725	0.0	1.060884786163862	-0.40962883900083374	0.0	1.1194920539951791	-0.3684005387333099	0.0	0.972121266162085	-0.43501344913636825	0.0	0.9736307210365175	-0.49051229926827145	0.0	1.0052976072431512	-0.5254058289173121	0.0
1	0.03354297693920335	0.9705564313600323	-0.5705419331159165	0.0	0.9700000978579578	-0.5685930686373502	0.0	0.9915386197907164	-0.6760411191203717	0.0	0.9600483781766123	-0.778722738620229	0.0	0.9938314179064451	-0.8005882880228885	0.0	0.9865557024579977	-0.803513009434011	0.0	0.9487452715287482	-0.794791691373385	0.0	0.9702004081503584	-0.567489258471676	0.0	0.9887011953952929	-0.6757503301459666	0.0	0.9619841640927055	-0.773412913704694	0.0	0.9964449558415828	-0.7962259883006498	0.0	0.9924729859477275	-0.7929828464368399	0.0	0.9483973391430599	-0.7873332997671277	0.0	0.9882862130507132	-0.4278183301729182	0.0	0.9994332004177499	-0.3600285813314269	0.0	1.0161863265388782	-0.3951045168523242	0.0	0.9915530239425605	-0.4348340605131303	0.0	1.061795641200433	-0.42017501863911166	0.0	1.1239163751756245	-0.38529476937313684	0.0	0.9743754725476572	-0.43609549723413404	0.0	0.9819772574585396	-0.47257335243882637	0.0	1.0278068475342959	-0.5005525176471881	0.0
2	0.0670859538784067	0.9676215414233544	-0.5718091175436135	0.0	0.9665044082762421	-0.5695493306662267	0.0	0.9979832719216237	-0.6747299196952757	0.0	0.9605833087679643	-0.7756366245870906	0.0	0.9963832807362554	-0.7970942206631138	0.0	0.9882668970233868	-0.7998306586653257	0.0	0.9490914421750845	-0.7904891305408385	0.0	0.9670834510346614	-0.5688187523002313	0.0	0.9941659614458557	-0.6742634735205727	0.0	0.9628568751967461	-0.7697754006946587	0.0	0.9998918739472222	-0.7933243165528872	0.0	0.9950821970174392	-0.7899736052117565	0.0	0.9470267121465238	-0.7832402016908088	0.0	0.988804566984065	-0.4290889165663685	0.0	1.001466965005247	-0.3618649242190446	0.0	1.0176038598515857	-0.39704737769292975	0.0	0.9917490309253263	-0.4367898864151592	0.0	1.0622060280444179	-0.43173278890576794	0.0	1.1275376763952283	-0.4041181056194762	0.0	0.976942424824316	-0.4377342234137351	0.0	0.9934257295367083	-0.4598933894658507	0.0	1.0519524296338028	-0.480282997120001	0.0
3	0.10062893081761004	0.9651476181396755	-0.5740278116962225	0.0	0.9635402055144978	-0.5715715446482674	0.0	1.003779406342607	-0.6741465412815196	0.0	0.9609991463563007	-0.7735714612772864	0.0	0.9986415274260788	-0.7944854692838266	0.0	0.9898629518927378	-0.7971479557099194	0.0	0.9493001043633218	-0.7874623296058156	0.0	0.9647104173396651	-0.5710093150325702	0.0	0.9993952967541767	-0.673630130897737	0.0	0.9635857516033032	-0.7671516844069038	0.0	1.0027998673065912	-0.7915080806996618	0.0	0.9970761014067502	-0.7880041852548245	0.0	0.945953955035532	-0.780041564729301	0.0	0.9896218695038761	-0.4313971262558249	0.0	1.0036317969389743	-0.36488173317955636	0.0	1.0192347358549467	-0.40006733201483796	0.0	0.9916169111570217	-0.4398208839411302	0.0	1.0615744498143174	-0.4451438659431221	0.0	1.1294327749416524	-0.42633535480779716	0.0	0.9798895614867608	-0.4404358141539266	0.0	1.008915408378664	-0.45526516497655467	0.0	1.0765629503454903	-0.468258373931832	0.0
4	0.1341719077568134	0.9633215523932797	-0.5773887252611926	0.0	0.9614394889033662	-0.5749087032060508	0.0	1.0085635878787105	-0.6748281145036124	0.0	0.9612738604620564	-0.7730742460004614	0.0	1.0004596206514582	-0.7932833896252498	0.0	0.9912380098377678	-0.7960093958447233	0.0	0.9492927875515083	-0.7862540438305933	0.0	0.9633235362853122	-0.5742772970947164	0.0	1.0039835212653778	-0.6743148577935574	0.0	0.9641210319644884	-0.7660994747634707	0.0	1.0050002783586252	-0.791075738865462	0.0	0.9982355367967084	-0.7873896859489863	0.0	0.9452468844119231	-0.7783642275575178	0.0	0.9906297605209797	-0.4350183128938321	0.0	1.005796571439698	-0.36918917717738675	0.0	1.020945131325515	-0.4042889105361393	0.0	0.9911045005779825	-0.4442518866307509	0.0	1.0594408434019003	-0.4608174201255613	0.0	1.128736990146902	-0.45248533308045175	0.0	0.9830046611249739	-0.44452759704881856	0.0	1.0261623439036884	-0.4586455748771691	0.0	1.0980422300587553	-0.4665854703663147	0.0
5	0.16771488469601675	0.9622511911556196	-0.5818893293916009	0.0	0.9604173235865883	-0.5795824212398887	0.0	1.01213967652886	-0.6771952070589159	0.0	0.961398957609352	-0.7745459855312499	0.0	1.0017771056082163	-0.7939356078110076	0.0	0.9923006425554088	-0.7968260671487443	0.0	0.9490432866387993	-0.7872073301500601	0.0	0.9629968090129452	-0.5787031539494254	0.0	1.0075888854683686	-0.6766779865969517	0.0	0.9644270400049393	-0.7671031775735078	0.0	1.006517610142832	-0.7922222963614939	0.0	0.998593868692971	-0.788336709903739	0.0	0.944925751041521	-0.778772984267096	0.0	0.9916094019309637	-0.43993290612492414	0.0	1.007774267982473	-0.3746636562421613	0.0	1.0225695222560358	-0.409594931713104	0.0	0.9902394505311868	-0.45012226694909735	0.0	1.055498784376184	-0.4786035738759101	0.0	1.1247262454160054	-0.48201393735448844	0.0	0.9859351945851258	-0.4500940158848201	0.0	1.041008646462929	-0.46845719878549524	0.0	1.112781352143469	-0.47542932518729303	0.0
